<?xml version="1.0" encoding="utf-8"?>
<!-- Generator: Adobe Illustrator 16.0.0, SVG Export Plug-In . SVG Version: 6.00 Build 0)  -->
<!DOCTYPE svg PUBLIC "-//W3C//DTD SVG 1.1//EN" "http://www.w3.org/Graphics/SVG/1.1/DTD/svg11.dtd">
<svg version="1.1" id="Layer_1" xmlns="http://www.w3.org/2000/svg" xmlns:xlink="http://www.w3.org/1999/xlink" x="0px" y="0px"
	 width="48.514px" height="47.597px" viewBox="0 0 48.514 47.597" enable-background="new 0 0 48.514 47.597" xml:space="preserve">
<path d="M47.502,19.325h-7.314v-7.988c0-0.611-0.453-1.104-1.011-1.104h-2.083c-0.56,0-1.014,0.493-1.014,1.104v7.988h-7.314
	c-0.557,0-1.012,0.497-1.012,1.107v2.273c0,0.612,0.455,1.106,1.012,1.106h7.314v7.991c0,0.611,0.454,1.104,1.014,1.104h2.083
	c0.558,0,1.011-0.493,1.011-1.104v-7.991h7.314c0.558,0,1.012-0.494,1.012-1.106v-2.273C48.514,19.822,48.06,19.325,47.502,19.325z"
	/>
<path d="M22.92,26.33c-1.539-1.191-2.937-2.937-2.961-3.472c0-0.977,0.08-1.444,2.084-3.149c2.594-2.214,4.021-5.131,4.021-8.21
	c0-2.789-0.781-5.272-2.112-7.016h1.03c0.215,0,0.423-0.071,0.595-0.206L28.455,2c0.357-0.28,0.507-0.779,0.369-1.237
	C28.689,0.31,28.303,0,27.863,0H14.994c-1.408,0-2.838,0.27-4.242,0.796c-4.691,1.77-7.969,6.132-7.969,10.615
	c0,6.348,4.502,11.158,10.52,11.31c-0.117,0.502-0.176,1.001-0.176,1.486c0,0.98,0.227,1.905,0.694,2.8c-0.054,0-0.107,0-0.166,0
	c-5.736,0-10.915,3.076-12.882,7.651C0.261,35.848,0,37.052,0,38.24c0,1.153,0.272,2.267,0.805,3.309
	c1.235,2.417,3.89,4.288,7.476,5.276c1.852,0.512,3.841,0.771,5.906,0.771c1.856,0,3.624-0.261,5.261-0.778
	c5.102-1.618,8.398-5.718,8.398-10.452C27.846,31.823,26.51,29.103,22.92,26.33z M6.668,36.729c0-3.305,3.843-6.201,8.225-6.201
	h0.117c0.953,0.012,1.883,0.166,2.761,0.458c0.299,0.226,0.591,0.442,0.869,0.649c2.029,1.51,3.369,2.508,3.743,4.106
	c0.087,0.405,0.131,0.808,0.131,1.198c0,4.115-2.811,6.2-8.354,6.2C9.959,43.14,6.668,40.324,6.668,36.729z M10.654,5.505
	c0.684-0.855,1.58-1.304,2.588-1.304l0.113,0.002c2.846,0.092,5.566,3.554,6.067,7.717c0.28,2.333-0.193,4.524-1.268,5.861
	c-0.686,0.856-1.569,1.308-2.618,1.308c0,0,0,0-0.002,0H15.49c-2.786-0.097-5.566-3.69-6.062-7.847
	C9.146,8.916,9.594,6.826,10.654,5.505z"/>
</svg>
