<?xml version="1.0" encoding="utf-8"?>
<!-- Generator: Adobe Illustrator 16.0.0, SVG Export Plug-In . SVG Version: 6.00 Build 0)  -->
<!DOCTYPE svg PUBLIC "-//W3C//DTD SVG 1.1//EN" "http://www.w3.org/Graphics/SVG/1.1/DTD/svg11.dtd">
<svg version="1.1" id="Layer_1" xmlns="http://www.w3.org/2000/svg" xmlns:xlink="http://www.w3.org/1999/xlink" x="0px" y="0px"
	 width="16px" height="15.001px" viewBox="0 0 16 15.001" enable-background="new 0 0 16 15.001" xml:space="preserve">
<g>
	<path fill="#414042" d="M4.555,9.601L0,14.148l0.854,0.853l2.156-0.143l3.404-3.399c-0.359-0.247-0.701-0.527-1.017-0.842
		C5.08,10.299,4.801,9.959,4.555,9.601z"/>
	<path fill="#414042" d="M10.432,0C7.355,0,4.863,2.489,4.863,5.559c0,3.07,2.492,5.56,5.568,5.56c3.075,0,5.568-2.489,5.568-5.56
		C16,2.489,13.507,0,10.432,0z M10.432,9.287c-2.062,0-3.734-1.669-3.734-3.729c0-2.059,1.672-3.728,3.734-3.728
		s3.734,1.669,3.734,3.728C14.166,7.618,12.494,9.287,10.432,9.287z"/>
</g>
</svg>
