<?xml version="1.0" encoding="utf-8"?>
<!-- Generator: Adobe Illustrator 16.0.0, SVG Export Plug-In . SVG Version: 6.00 Build 0)  -->
<!DOCTYPE svg PUBLIC "-//W3C//DTD SVG 1.1//EN" "http://www.w3.org/Graphics/SVG/1.1/DTD/svg11.dtd">
<svg version="1.1" id="Layer_1" xmlns="http://www.w3.org/2000/svg" xmlns:xlink="http://www.w3.org/1999/xlink" x="0px" y="0px"
	 width="48.531px" height="47.607px" viewBox="0 0 48.531 47.607" enable-background="new 0 0 48.531 47.607" xml:space="preserve">
<path d="M39.135,0L9.371,0.015C4.201,0.019-0.003,4.148,0,9.219l0.006,9.715l0.01,19.482c0.004,5.07,4.212,9.195,9.382,9.19
	l29.765-0.015c5.168-0.003,9.373-4.131,9.369-9.202L48.52,18.908l-0.004-9.716C48.512,4.121,44.305-0.002,39.135,0z M41.826,5.483
	l1.072-0.004v1.05l0.004,7.019l-8.195,0.028L34.676,5.51L41.826,5.483z M17.34,18.923c1.551-2.109,4.07-3.494,6.922-3.494
	c2.848-0.002,5.371,1.381,6.926,3.486c1.012,1.376,1.617,3.061,1.619,4.884c0.002,4.618-3.83,8.379-8.535,8.381
	c-4.709,0.002-8.541-3.754-8.545-8.37C15.727,21.985,16.33,20.3,17.34,18.923z M43.805,38.393c0.002,2.514-2.082,4.56-4.646,4.562
	L9.395,42.97c-2.564,0.002-4.648-2.041-4.65-4.557L4.732,18.931l7.242-0.004C11.351,20.437,11,22.085,11,23.813
	c0.004,7.171,5.957,13.01,13.273,13.005c7.316-0.002,13.262-5.845,13.258-13.02c0-1.729-0.355-3.374-0.98-4.885l7.242-0.002
	L43.805,38.393z"/>
</svg>
