<?xml version="1.0" encoding="utf-8"?>
<!-- Generator: Adobe Illustrator 16.0.0, SVG Export Plug-In . SVG Version: 6.00 Build 0)  -->
<!DOCTYPE svg PUBLIC "-//W3C//DTD SVG 1.1//EN" "http://www.w3.org/Graphics/SVG/1.1/DTD/svg11.dtd">
<svg version="1.1" id="Layer_1" xmlns="http://www.w3.org/2000/svg" xmlns:xlink="http://www.w3.org/1999/xlink" x="0px" y="0px"
	 width="167.276px" height="74.121px" viewBox="0 0 167.276 74.121" enable-background="new 0 0 167.276 74.121"
	 xml:space="preserve">
<g>
	<g>
		<g>
			<path fill="#00AEEF" d="M12.25,0.871c1.791,0,3.242,1.453,3.242,3.242v8.711c0,1.793-1.451,3.246-3.242,3.246H3.426
				c-1.791,0-3.242-1.453-3.242-3.246V4.113c0-1.789,1.451-3.242,3.242-3.242H12.25z"/>
			<path fill="#00AEEF" d="M12.355,24.848H3.32c-1.834,0-3.32,1.484-3.32,3.32v45.953h12.355c1.832,0,3.318-1.484,3.318-3.32V28.168
				C15.674,26.332,14.188,24.848,12.355,24.848z"/>
			<path fill="#EBEBEB" d="M65.076,0L42.318,0.523C28.355,1.012,22.799,11.465,22.799,21.629l-0.25,52.492h12.725
				c1.834,0,3.32-1.484,3.32-3.32l-0.148-20.762c0-1.898,1.328-3.324,3.223-3.324h12.014c1.834,0,3.318-1.488,3.318-3.316v-7.523
				c0-1.832-1.484-3.316-3.318-3.316H38.515v-8.805c0-5.32,2.789-7.512,9.053-7.512l17.508-0.043c1.832,0,3.318-1.488,3.318-3.32
				V3.32C68.394,1.488,66.908,0,65.076,0z"/>
			<path fill="#EBEBEB" d="M87.66,0.543h-9.035c-1.834,0-3.318,1.484-3.318,3.32v70.242H87.66c1.834,0,3.318-1.488,3.318-3.32V3.863
				C90.978,2.027,89.494,0.543,87.66,0.543z"/>
			<g>
				<path fill="#EBEBEB" d="M140.325,21.629c0-10.164-5.56-20.617-19.522-21.105L101.294,0c-1.832,0-3.32,1.488-3.32,3.32v9.559
					c0,1.832,1.488,3.32,3.32,3.32l14.258,0.043c6.264,0,9.053,2.191,9.053,7.512l-0.26,50.367h12.836
					c1.837,0,3.321-1.484,3.321-3.32L140.325,21.629z"/>
				<path fill="#EBEBEB" d="M163.926,0.012c0,0-20.729,0.465-23.436,0.465c-2.353,0.191-2.671,1.75-1.143,3.148
					c5.34,4.574,6.092,12.051,6.092,12.414l18.486,0.152c1.852,0,3.35-1.496,3.35-3.344V3.355
					C167.276,1.508,165.778,0.012,163.926,0.012z"/>
			</g>
		</g>
	</g>
</g>
</svg>
