<?xml version="1.0" encoding="utf-8"?>
<!-- Generator: Adobe Illustrator 16.0.0, SVG Export Plug-In . SVG Version: 6.00 Build 0)  -->
<!DOCTYPE svg PUBLIC "-//W3C//DTD SVG 1.1//EN" "http://www.w3.org/Graphics/SVG/1.1/DTD/svg11.dtd">
<svg version="1.1" id="Layer_1" xmlns="http://www.w3.org/2000/svg" xmlns:xlink="http://www.w3.org/1999/xlink" x="0px" y="0px"
	 width="38.818px" height="47.608px" viewBox="480.32 227.21 38.818 47.608" enable-background="new 480.32 227.21 38.818 47.608"
	 xml:space="preserve">
<path d="M500.906,227.21c-13.687,0-20.586,9.315-20.586,17.081c0,4.703,1.875,8.889,5.896,10.447
	c0.659,0.259,1.251,0.009,1.442-0.686c0.133-0.477,0.448-1.687,0.589-2.193c0.192-0.685,0.118-0.925-0.415-1.524
	c-1.16-1.298-1.901-2.979-1.901-5.361c0-6.913,5.446-13.099,14.183-13.099c7.734,0,11.984,4.487,11.984,10.48
	c0,7.885-3.677,14.539-9.133,14.539c-3.013,0-5.269-2.362-4.545-5.266c0.865-3.466,2.542-7.204,2.542-9.707
	c0-2.236-1.266-4.103-3.885-4.103c-3.08,0-5.555,3.026-5.555,7.077c0,2.581,0.919,4.328,0.919,4.328s-3.152,12.68-3.705,14.902
	c-1.101,4.421-0.166,9.844-0.086,10.391c0.046,0.324,0.483,0.402,0.686,0.159c0.283-0.354,3.953-4.651,5.199-8.951
	c0.354-1.216,2.024-7.519,2.024-7.519c1.002,1.816,3.927,3.409,7.037,3.409c9.259,0,15.541-8.014,15.541-18.739
	C519.141,234.765,511.904,227.21,500.906,227.21z"/>
</svg>
