<?xml version="1.0" encoding="utf-8"?>
<!-- Generator: Adobe Illustrator 16.0.0, SVG Export Plug-In . SVG Version: 6.00 Build 0)  -->
<!DOCTYPE svg PUBLIC "-//W3C//DTD SVG 1.1//EN" "http://www.w3.org/Graphics/SVG/1.1/DTD/svg11.dtd">
<svg version="1.1" id="Layer_1" xmlns="http://www.w3.org/2000/svg" xmlns:xlink="http://www.w3.org/1999/xlink" x="0px" y="0px"
	 width="95px" height="71.128px" viewBox="0 0 95 71.128" enable-background="new 0 0 95 71.128" xml:space="preserve">
<path fill-rule="evenodd" clip-rule="evenodd" fill="#1196D4" d="M74.852,71.128c-0.891-0.312-1.839-0.335-2.749-0.562
	c-3.813-0.947-7.08-2.879-9.95-5.517c-4.146-3.809-6.97-8.406-8.24-13.917c-0.847-3.669-0.954-7.375-0.613-11.114
	c0.477-5.223,1.925-10.155,4.304-14.82c2.405-4.718,5.502-8.941,9.306-12.615c4.272-4.127,9.273-7.196,14.625-9.721
	c2.153-1.016,4.354-1.917,6.573-2.773c0.449-0.174,0.582-0.118,0.575,0.384c-0.024,1.624-0.022,3.249,0,4.873
	c0.006,0.392-0.134,0.603-0.458,0.799c-4.226,2.555-8.317,5.304-12.09,8.503c-2.841,2.408-5.501,4.987-7.436,8.213
	c-1.723,2.87-2.601,6-2.861,9.33c-0.163,2.074-0.13,4.123,0.405,6.145c0.309,1.167,0.906,2.177,1.735,3.042
	c1.22,1.272,2.69,1.63,4.393,1.195c1.855-0.474,3.633-1.19,5.497-1.65c8.359-2.063,16.096,4.517,17,11.592
	c0.049,0.375,0.089,0.752,0.133,1.129c0,0.978,0,1.956,0,2.933c-0.224,3.222-1.157,6.181-3.438,8.553
	c-2.696,2.805-5.987,4.61-9.779,5.484c-0.868,0.201-1.751,0.344-2.627,0.514C77.722,71.128,76.286,71.128,74.852,71.128z"/>
<path fill-rule="evenodd" clip-rule="evenodd" fill="#1196D4" d="M0.004,41.618c0.379-7.571,2.84-14.438,6.934-20.781
	c5.292-8.201,12.656-13.9,21.404-17.973c2.14-0.996,4.316-1.898,6.517-2.751c0.481-0.187,0.655-0.17,0.643,0.417
	c-0.033,1.604-0.024,3.208-0.002,4.812c0.006,0.389-0.127,0.604-0.453,0.802c-4.228,2.556-8.321,5.305-12.095,8.505
	c-2.841,2.408-5.502,4.989-7.438,8.216c-1.721,2.87-2.6,6.003-2.859,9.333c-0.162,2.075-0.13,4.125,0.408,6.146
	c0.31,1.166,0.908,2.176,1.739,3.041c1.223,1.271,2.695,1.621,4.396,1.185c1.856-0.476,3.635-1.193,5.5-1.651
	c8.358-2.053,16.093,4.532,16.992,11.616c0.491,3.868,0.116,7.589-2.027,10.947c-1.762,2.76-4.405,4.494-7.299,5.864
	c-1.938,0.917-3.992,1.45-6.128,1.656c-0.104,0.01-0.213,0.004-0.262,0.125c-1.436,0-2.87,0-4.306,0
	c-0.082-0.178-0.251-0.117-0.388-0.135c-2.295-0.299-4.529-0.861-6.559-1.974C5.609,64.023,0.71,56.312,0,45.941
	C0.002,44.5,0.002,43.059,0.004,41.618z"/>
</svg>
