<?xml version="1.0" encoding="utf-8"?>
<!-- Generator: Adobe Illustrator 16.0.0, SVG Export Plug-In . SVG Version: 6.00 Build 0)  -->
<!DOCTYPE svg PUBLIC "-//W3C//DTD SVG 1.1//EN" "http://www.w3.org/Graphics/SVG/1.1/DTD/svg11.dtd">
<svg version="1.1" id="Layer_1" xmlns="http://www.w3.org/2000/svg" xmlns:xlink="http://www.w3.org/1999/xlink" x="0px" y="0px"
	 width="48.511px" height="38.083px" viewBox="0 0 48.511 38.083" enable-background="new 0 0 48.511 38.083" xml:space="preserve">
<path d="M48.511,4.506c-1.783,0.767-3.702,1.283-5.717,1.515c2.056-1.191,3.633-3.075,4.376-5.319
	c-1.923,1.101-4.052,1.902-6.319,2.333C39.036,1.166,36.449,0,33.587,0c-5.497,0-9.953,4.304-9.953,9.614
	c0,0.755,0.088,1.484,0.257,2.19C15.62,11.405,8.286,7.577,3.377,1.759C2.521,3.178,2.03,4.829,2.03,6.591
	c0,3.337,1.756,6.278,4.427,8.004c-1.631-0.05-3.167-0.481-4.508-1.204c-0.001,0.04-0.001,0.08-0.001,0.122
	c0,4.657,3.431,8.544,7.984,9.428c-0.835,0.218-1.715,0.337-2.623,0.337c-0.642,0-1.266-0.061-1.873-0.174
	c1.266,3.821,4.942,6.599,9.296,6.677c-3.406,2.579-7.697,4.116-12.361,4.116c-0.802,0-1.595-0.046-2.374-0.133
	c4.405,2.726,9.636,4.318,15.256,4.318c18.307,0,28.317-14.649,28.317-27.354c0-0.418-0.009-0.831-0.028-1.245
	C45.49,8.128,47.178,6.437,48.511,4.506z"/>
</svg>
