<?xml version="1.0" encoding="utf-8"?>
<!-- Generator: Adobe Illustrator 16.0.0, SVG Export Plug-In . SVG Version: 6.00 Build 0)  -->
<!DOCTYPE svg PUBLIC "-//W3C//DTD SVG 1.1//EN" "http://www.w3.org/Graphics/SVG/1.1/DTD/svg11.dtd">
<svg version="1.1" id="Layer_1" xmlns="http://www.w3.org/2000/svg" xmlns:xlink="http://www.w3.org/1999/xlink" x="0px" y="0px"
	 width="53.375px" height="38.076px" viewBox="0 0 53.375 38.076" enable-background="new 0 0 53.375 38.076" xml:space="preserve">
<path d="M53.022,8.449c0-4.455-3.453-8.072-7.711-8.072C39.235,0.107,33.026-0.01,26.687,0C20.349-0.006,14.138,0.107,8.063,0.377
	c-4.252,0-7.709,3.617-7.709,8.072c-0.254,3.535-0.363,7.059-0.354,10.589c-0.01,3.526,0.1,7.061,0.354,10.593
	c0,4.455,3.453,8.072,7.709,8.072c6.068,0.265,12.285,0.385,18.623,0.372c6.334,0.013,12.549-0.107,18.621-0.372
	c4.254,0,7.707-3.617,7.707-8.072c0.262-3.532,0.369-7.066,0.359-10.593C53.384,15.508,53.276,11.98,53.022,8.449z M20.019,31.151
	V6.92l16.68,12.115L20.019,31.151z"/>
</svg>
